<?xml version="1.0" standalone="no"?>
<!DOCTYPE svg PUBLIC "-//W3C//DTD SVG 20010904//EN"
 "http://www.w3.org/TR/2001/REC-SVG-20010904/DTD/svg10.dtd">
<svg version="1.0" xmlns="http://www.w3.org/2000/svg"
 width="1280.000000pt" height="1280.000000pt" viewBox="0 0 1280.000000 1280.000000"
 preserveAspectRatio="xMidYMid meet">
<metadata>
Created by potrace 1.15, written by Peter Selinger 2001-2017
</metadata>
<g transform="translate(0.000000,1280.000000) scale(0.100000,-0.100000)"
fill="#000000" stroke="none">
<path d="M4470 12791 c-97 -32 -177 -102 -219 -190 -23 -50 -26 -68 -26 -166
0 -105 2 -114 34 -180 22 -45 55 -91 93 -127 33 -33 53 -60 47 -64 -6 -3 -46
-8 -89 -11 -162 -11 -292 70 -335 209 -8 24 -14 34 -14 23 -2 -67 89 -178 178
-218 56 -25 182 -34 246 -18 41 10 50 9 94 -14 92 -46 195 -69 316 -68 61 0
128 5 149 11 69 20 51 5 -34 -27 -167 -65 -234 -76 -460 -76 l-205 0 -95 47
c-182 90 -347 123 -578 116 -134 -5 -398 -35 -388 -45 2 -3 60 3 128 11 346
46 578 22 783 -79 l70 -35 -55 6 c-30 3 -102 12 -160 20 -109 14 -238 17 -278
6 -13 -4 23 -7 80 -8 57 -1 154 -9 217 -19 l113 -18 -43 -21 c-40 -20 -49 -32
-104 -141 -48 -96 -65 -121 -88 -129 -23 -9 -31 -6 -54 16 -20 20 -24 32 -19
52 8 33 42 52 62 35 19 -15 18 -29 -3 -45 -10 -7 -13 -14 -6 -14 13 0 43 27
43 40 0 18 -33 40 -59 40 -61 0 -84 -88 -36 -135 57 -58 108 -22 179 130 57
121 78 143 143 152 21 2 99 -2 173 -11 168 -20 297 -20 423 -1 120 18 286 72
385 125 39 22 72 37 72 34 0 -3 -55 -80 -122 -172 -75 -104 -160 -205 -223
-268 -88 -89 -113 -107 -196 -147 -51 -25 -121 -50 -154 -56 -33 -6 -71 -13
-85 -15 -14 -3 5 -3 41 0 65 4 182 36 206 56 7 6 -2 -17 -19 -51 -26 -52 -32
-73 -31 -127 0 -57 4 -70 30 -102 40 -50 94 -76 140 -67 88 16 125 116 62 169
-17 14 -38 26 -47 25 -11 0 -8 -4 8 -10 43 -17 60 -40 60 -80 0 -99 -156 -123
-215 -33 -11 17 -20 54 -22 93 -7 91 27 156 117 226 111 85 230 213 377 405
78 102 176 222 218 267 181 195 400 312 643 342 84 11 203 4 180 -10 -7 -5
-22 -9 -34 -9 -39 0 -143 -61 -199 -117 -55 -56 -118 -168 -161 -288 -25 -73
-71 -115 -123 -115 -107 0 -165 97 -108 180 31 46 71 58 106 33 47 -35 37 -88
-17 -96 -23 -3 -24 -5 -9 -11 27 -13 62 1 75 29 19 41 14 64 -17 96 -73 72
-211 -2 -211 -114 0 -53 21 -97 64 -135 30 -27 45 -32 85 -32 90 0 151 65 206
220 40 113 83 186 139 236 76 69 137 96 227 102 86 5 118 -7 207 -78 l52 -40
52 40 c89 71 121 83 207 78 90 -6 151 -33 227 -101 57 -52 89 -105 139 -237
45 -118 68 -154 118 -191 57 -41 123 -41 171 1 42 38 66 86 66 137 0 112 -138
187 -211 114 -31 -32 -36 -55 -17 -96 13 -28 48 -42 75 -29 15 6 14 8 -7 12
-14 2 -31 9 -38 15 -20 16 -10 58 20 80 24 18 30 19 59 7 37 -16 69 -63 69
-103 0 -68 -54 -117 -131 -117 -57 0 -97 42 -134 140 -83 223 -191 339 -355
382 l-45 12 55 7 c117 17 324 -28 469 -100 104 -53 223 -143 311 -239 40 -42
138 -162 219 -267 151 -197 272 -327 378 -407 77 -58 113 -117 120 -197 5 -48
1 -68 -17 -105 -26 -54 -61 -76 -123 -76 -109 0 -137 129 -37 169 16 6 19 10
8 10 -9 1 -30 -11 -47 -25 -59 -50 -32 -141 48 -165 53 -16 102 2 146 54 33
38 35 45 35 113 0 61 -5 81 -30 129 -17 32 -25 53 -18 47 18 -14 137 -52 162
-51 12 0 -6 8 -39 18 -33 9 -94 35 -135 56 -107 56 -251 204 -407 418 -68 92
-121 167 -119 167 3 0 37 -18 78 -39 99 -54 265 -108 385 -126 126 -19 255
-19 423 1 74 9 152 13 173 11 65 -9 86 -31 143 -152 71 -152 122 -188 179
-130 49 49 25 135 -38 135 -25 0 -57 -22 -57 -40 0 -13 30 -40 43 -40 7 0 4 7
-5 14 -22 16 -23 30 -4 45 20 17 54 -2 62 -35 5 -20 1 -32 -19 -52 -23 -22
-31 -25 -54 -16 -23 8 -40 33 -88 129 -55 109 -64 121 -104 141 l-43 21 113
18 c63 10 160 18 217 19 57 1 93 4 80 8 -40 11 -169 8 -278 -6 -58 -8 -130
-17 -160 -20 l-55 -6 70 35 c205 101 437 125 783 79 68 -8 126 -14 128 -11 10
10 -254 40 -388 45 -231 7 -396 -26 -578 -116 l-95 -47 -205 0 c-226 0 -293
11 -460 76 -85 32 -103 47 -34 27 21 -6 89 -11 149 -11 122 -1 233 24 315 69
41 23 48 24 93 13 68 -16 191 -7 248 18 89 40 180 151 178 218 0 11 -6 1 -14
-23 -43 -139 -173 -220 -335 -209 -43 3 -83 8 -89 11 -6 4 15 32 48 65 36 36
72 85 92 127 32 65 34 74 34 179 0 101 -2 115 -29 169 -35 72 -88 126 -158
163 -71 37 -181 39 -244 6 -142 -75 -183 -250 -99 -419 43 -87 152 -204 228
-244 26 -14 47 -28 47 -31 0 -7 -40 -26 -110 -51 -81 -29 -263 -36 -366 -13
-145 32 -255 93 -404 223 -203 178 -401 264 -640 279 l-105 7 60 19 c42 14 99
21 190 24 122 5 142 2 332 -36 193 -39 295 -48 351 -33 13 4 -19 7 -70 8 -74
1 -127 10 -256 42 -90 23 -202 47 -250 53 -210 28 -403 -21 -579 -148 l-73
-52 -73 52 c-176 127 -369 176 -579 148 -48 -6 -160 -30 -250 -53 -129 -32
-182 -41 -256 -42 -51 -1 -83 -4 -70 -8 55 -15 156 -6 349 33 191 38 212 40
334 36 91 -3 148 -10 190 -24 l60 -19 -105 -7 c-243 -15 -435 -99 -645 -283
-144 -126 -236 -178 -386 -215 -106 -27 -291 -23 -379 9 -71 25 -110 44 -110
51 0 3 21 17 47 31 76 40 185 157 228 243 83 169 41 347 -98 419 -45 22 -145
33 -187 19z m192 -48 c107 -58 148 -199 99 -339 -39 -108 -156 -241 -263 -295
-39 -20 -39 -20 -72 0 -53 33 -125 117 -154 179 -23 49 -27 70 -27 147 0 76 4
99 26 145 80 172 247 241 391 163z m3715 1 c63 -30 117 -88 152 -163 22 -47
26 -70 26 -146 0 -77 -4 -98 -27 -147 -29 -62 -101 -146 -154 -179 l-34 -20
-52 28 c-78 42 -187 155 -227 236 -75 154 -45 322 70 387 83 46 155 47 246 4z"/>
<path d="M4405 12423 c40 -37 48 -48 25 -33 -19 13 -47 35 -62 48 l-28 26 0
-41 c0 -57 23 -79 108 -107 39 -13 72 -22 72 -20 0 19 -26 115 -36 135 -15 29
-59 49 -108 49 l-31 -1 60 -56z"/>
<path d="M8350 12462 c-35 -17 -47 -42 -64 -133 l-6 -36 72 23 c85 28 108 50
108 107 l0 41 -27 -26 c-16 -13 -44 -35 -63 -48 -23 -15 -15 -4 25 33 l60 56
-35 1 c-19 0 -51 -8 -70 -18z"/>
<path d="M4883 12646 l-52 -11 58 -62 c47 -51 64 -63 89 -63 70 0 107 40 78
85 -43 66 -69 73 -173 51z m121 -66 c32 -17 51 -30 41 -30 -18 0 -105 46 -105
55 0 7 0 7 64 -25z"/>
<path d="M7782 12640 c-58 -54 -64 -97 -16 -118 55 -26 83 -16 145 50 l58 63
-57 12 c-82 17 -105 16 -130 -7z m78 -35 c0 -9 -87 -55 -105 -55 -10 0 6 13
36 29 56 29 69 34 69 26z"/>
<path d="M5067 12468 c-22 -8 -36 -26 -58 -76 -16 -35 -28 -66 -26 -68 2 -2
34 -1 71 3 81 7 113 29 125 86 10 40 6 45 -18 23 -9 -8 -38 -24 -66 -35 -55
-23 -47 -15 33 30 29 16 50 34 47 39 -8 13 -72 11 -108 -2z"/>
<path d="M7625 12470 c-3 -5 18 -23 47 -39 80 -45 88 -53 33 -30 -27 11 -57
27 -66 35 -24 22 -28 17 -18 -23 12 -57 44 -79 125 -86 37 -4 69 -5 71 -3 2 2
-10 32 -26 68 -24 53 -35 67 -61 77 -40 14 -97 14 -105 1z"/>
<path d="M1798 12245 c-3 -3 -50 -10 -105 -14 -117 -10 -143 -23 -173 -87 -26
-52 -38 -124 -22 -124 6 0 50 36 96 80 47 44 88 80 91 80 16 0 -120 -139 -146
-150 -41 -17 -36 -28 16 -36 101 -15 144 15 196 136 17 41 38 84 46 97 14 21
14 31 1 18z"/>
<path d="M2520 12245 c0 -3 9 -23 20 -43 11 -20 33 -68 51 -105 40 -89 71
-110 152 -104 59 5 84 16 57 25 -18 5 -173 162 -161 162 4 0 32 -25 62 -55 58
-60 126 -111 135 -103 9 10 -6 70 -29 117 -34 69 -61 83 -170 91 -52 4 -100
11 -106 14 -6 4 -11 4 -11 1z"/>
<path d="M10267 12244 c-3 -3 -49 -10 -102 -14 -112 -8 -138 -22 -172 -91 -25
-51 -40 -119 -26 -119 15 0 73 46 130 104 29 31 58 56 63 56 13 0 -141 -156
-160 -162 -27 -9 -2 -20 57 -25 81 -6 112 15 152 104 18 37 41 85 52 106 19
35 22 57 6 41z"/>
<path d="M11008 12214 c12 -21 33 -66 47 -99 46 -106 88 -133 185 -120 57 8
63 17 21 35 -26 11 -162 150 -146 150 3 0 44 -36 91 -80 46 -44 90 -80 96 -80
16 0 4 67 -22 122 -31 66 -55 78 -171 89 -55 4 -105 11 -111 15 -6 4 -1 -11
10 -32z"/>
<path d="M2984 12197 c3 -12 6 -45 6 -74 0 -63 27 -100 83 -112 40 -10 45 -6
23 18 -15 17 -58 111 -51 111 3 0 17 -24 31 -52 36 -72 45 -83 55 -66 12 19
11 73 -2 102 -7 16 -37 37 -81 59 -65 33 -69 34 -64 14z"/>
<path d="M9749 12182 c-41 -20 -70 -42 -78 -58 -13 -29 -14 -83 -2 -102 10
-17 19 -6 55 66 14 28 28 52 31 52 7 0 -36 -94 -51 -111 -22 -24 -17 -28 23
-19 60 14 77 39 84 128 4 42 6 77 5 77 0 1 -31 -14 -67 -33z"/>
<path d="M1273 12181 c-33 -16 -66 -38 -72 -49 -13 -25 -15 -122 -2 -122 4 0
25 30 45 68 20 37 34 56 30 42 -3 -14 -17 -45 -30 -69 -13 -24 -24 -45 -24
-46 0 -12 84 22 95 39 12 19 33 167 24 166 -2 -1 -32 -14 -66 -29z"/>
<path d="M5995 12201 c-87 -24 -143 -68 -183 -145 -23 -45 -26 -63 -27 -151 0
-85 4 -108 24 -154 22 -48 31 -57 80 -79 65 -30 191 -41 258 -23 66 18 132 70
166 130 39 69 48 182 23 281 -23 87 -35 103 -98 124 -60 20 -198 30 -243 17z
m191 -62 c32 -6 64 -15 71 -21 7 -5 17 -35 24 -66 32 -156 -88 -306 -246 -306
-108 1 -145 39 -145 149 0 112 78 211 189 241 25 7 46 13 47 13 0 1 27 -4 60
-10z"/>
<path d="M6605 12197 c-94 -25 -108 -36 -133 -107 -18 -54 -22 -82 -19 -160 2
-85 6 -101 33 -150 35 -61 101 -113 167 -131 67 -18 193 -7 258 23 49 22 58
31 79 79 21 45 24 70 24 154 1 89 -2 106 -26 151 -30 58 -81 107 -136 130 -49
21 -184 27 -247 11z m151 -72 c87 -36 154 -135 154 -228 0 -113 -37 -150 -145
-151 -177 0 -307 197 -232 352 22 47 140 61 223 27z"/>
<path d="M11460 12172 c1 -57 16 -122 32 -139 13 -12 88 -37 88 -28 0 1 -11
22 -24 46 -13 24 -27 55 -30 69 -4 14 9 -5 29 -42 19 -38 40 -68 45 -68 6 0
10 24 10 54 0 67 -16 87 -92 121 l-58 25 0 -38z"/>
<path d="M765 11957 c3 -47 13 -121 21 -164 15 -86 14 -60 -6 133 -6 53 -8 99
-6 101 2 3 66 -2 142 -11 75 -9 144 -15 153 -15 25 2 -144 27 -233 35 l-79 7
8 -86z"/>
<path d="M11860 12024 c-52 -7 -106 -13 -119 -13 -13 -1 -22 -4 -18 -7 3 -3
70 1 148 10 78 9 146 13 150 9 4 -4 2 -64 -6 -133 -25 -239 -25 -239 -16 -195
12 53 41 279 41 316 0 28 -2 29 -42 28 -24 -1 -86 -7 -138 -15z"/>
<path d="M1103 11993 c9 -2 25 -2 35 0 9 3 1 5 -18 5 -19 0 -27 -2 -17 -5z"/>
<path d="M11663 11993 c9 -2 25 -2 35 0 9 3 1 5 -18 5 -19 0 -27 -2 -17 -5z"/>
<path d="M1193 11983 c9 -2 23 -2 30 0 6 3 -1 5 -18 5 -16 0 -22 -2 -12 -5z"/>
<path d="M3103 11983 c9 -2 25 -2 35 0 9 3 1 5 -18 5 -19 0 -27 -2 -17 -5z"/>
<path d="M9663 11983 c9 -2 25 -2 35 0 9 3 1 5 -18 5 -19 0 -27 -2 -17 -5z"/>
<path d="M11573 11983 c9 -2 25 -2 35 0 9 3 1 5 -18 5 -19 0 -27 -2 -17 -5z"/>
<path d="M1286 11953 c-3 -3 -6 -25 -6 -48 0 -51 23 -74 103 -104 32 -11 59
-21 60 -21 6 0 -11 128 -18 140 -10 16 -68 40 -96 40 l-22 0 21 -23 c20 -21
57 -97 48 -97 -2 0 -18 24 -35 54 -32 57 -44 70 -55 59z"/>
<path d="M2954 11953 c-40 -8 -61 -44 -67 -111 -5 -56 -3 -63 11 -57 10 4 40
16 69 26 56 21 67 32 76 68 7 27 -2 81 -12 81 -4 0 -18 -18 -31 -40 -42 -68
-52 -80 -40 -46 6 16 20 42 31 57 22 31 19 33 -37 22z"/>
<path d="M9756 11934 c-7 -26 1 -72 16 -91 6 -7 33 -21 61 -32 29 -10 59 -22
69 -26 14 -6 16 1 11 57 -7 83 -30 109 -101 113 -46 3 -51 2 -56 -21z m58 -9
c9 -14 21 -37 26 -53 8 -23 8 -24 -3 -8 -6 10 -22 34 -34 52 -12 19 -19 34
-14 34 5 0 16 -11 25 -25z"/>
<path d="M11414 11946 c-18 -8 -35 -20 -39 -26 -7 -11 -24 -140 -19 -140 1 0
28 10 61 22 78 29 103 52 103 97 0 66 -15 70 -51 13 -18 -29 -34 -50 -36 -48
-6 6 16 47 40 74 l20 22 -24 0 c-13 -1 -38 -7 -55 -14z"/>
<path d="M5713 11798 c-29 -30 -29 -46 -1 -102 l21 -45 28 37 c34 44 36 81 9
113 l-19 24 -2 -50 -2 -50 -6 48 -6 49 -22 -24z"/>
<path d="M7028 11800 c-25 -35 -22 -69 11 -112 l28 -37 21 45 c28 57 28 75 -3
104 l-25 23 -2 -44 -1 -44 -6 45 -6 45 -17 -25z"/>
<path d="M802 11680 c0 -19 2 -27 5 -17 2 9 2 25 0 35 -3 9 -5 1 -5 -18z"/>
<path d="M6376 11695 c-11 -8 -73 -36 -139 -61 -172 -67 -235 -129 -224 -221
8 -76 80 -133 168 -133 56 0 103 31 129 85 18 38 20 50 10 79 -15 46 -44 70
-85 70 -59 0 -99 -62 -61 -93 12 -10 13 -9 9 7 -14 57 49 83 86 36 29 -37 26
-61 -13 -100 -26 -26 -42 -34 -70 -34 -124 0 -172 148 -73 221 12 9 56 28 97
44 41 15 101 41 133 58 l57 30 49 -27 c27 -14 80 -38 117 -52 38 -14 85 -35
105 -46 117 -65 77 -228 -57 -228 -28 0 -44 8 -70 34 -19 19 -34 43 -34 54 0
27 37 72 60 72 28 0 52 -30 47 -57 -3 -19 -2 -21 9 -12 38 31 -3 93 -61 93
-41 0 -70 -24 -85 -70 -10 -29 -8 -41 11 -80 31 -64 69 -86 142 -81 116 7 190
114 143 206 -29 56 -89 97 -213 145 -66 25 -128 53 -139 61 -10 8 -21 14 -24
14 -3 0 -14 -6 -24 -14z"/>
<path d="M5845 11629 c-17 -12 -34 -26 -39 -30 -11 -10 66 -49 97 -49 44 0 73
54 44 79 -29 23 -71 23 -102 0z m104 -35 c9 -8 -45 -2 -64 6 -14 7 -8 8 20 3
22 -3 42 -7 44 -9z"/>
<path d="M6870 11637 c-14 -7 -26 -21 -28 -30 -5 -25 26 -57 55 -57 21 0 103
35 103 44 0 8 -77 56 -91 56 -7 0 -25 -6 -39 -13z m45 -37 c-11 -5 -31 -8 -45
-8 -23 0 -22 1 5 8 42 11 65 11 40 0z"/>
<path d="M812 11595 c0 -16 2 -22 5 -12 2 9 2 23 0 30 -3 6 -5 -1 -5 -18z"/>
<path d="M11982 11595 c0 -16 2 -22 5 -12 2 9 2 23 0 30 -3 6 -5 -1 -5 -18z"/>
<path d="M661 11593 c-11 -10 -32 -44 -46 -77 l-26 -59 73 7 c89 9 112 23 126
75 5 23 9 41 7 41 -1 0 -22 -11 -46 -24 -24 -13 -55 -27 -69 -30 -14 -4 5 9
43 29 37 19 67 40 67 45 0 18 -106 12 -129 -7z"/>
<path d="M12010 11600 c0 -5 30 -26 68 -45 37 -20 56 -33 42 -29 -14 3 -45 17
-69 30 -24 13 -45 24 -46 24 -2 0 2 -18 7 -41 14 -52 37 -66 126 -75 l73 -7
-26 59 c-34 78 -54 94 -121 94 -30 0 -54 -4 -54 -10z"/>
<path d="M4377 11526 c9 -87 14 -106 36 -121 12 -8 31 -15 43 -15 l21 0 -23
48 c-34 69 -29 76 8 10 17 -32 35 -55 39 -52 5 3 9 24 9 48 0 50 -20 73 -91
104 l-47 20 5 -42z"/>
<path d="M8375 11545 c-70 -31 -87 -53 -83 -106 3 -41 4 -43 39 -47 59 -5 82
22 90 104 3 38 5 69 5 70 -1 1 -23 -9 -51 -21z m-25 -100 c-11 -26 -23 -45
-26 -43 -3 3 5 26 17 52 29 59 36 53 9 -9z"/>
<path d="M4156 11468 c6 -68 34 -108 75 -108 19 0 19 1 -1 37 -11 21 -20 42
-20 48 0 5 12 -11 27 -38 28 -50 43 -48 43 6 0 44 -17 65 -72 92 -29 14 -53
25 -55 25 -1 0 0 -28 3 -62z"/>
<path d="M8591 11506 c-53 -27 -71 -50 -71 -90 0 -57 15 -60 43 -9 15 27 27
43 27 38 0 -6 -9 -27 -20 -48 -20 -36 -20 -37 -1 -37 41 0 69 40 75 108 3 34
2 62 -2 61 -4 -1 -27 -11 -51 -23z"/>
<path d="M851 11511 c-11 -7 -4 -16 31 -38 78 -48 85 -54 43 -38 -22 9 -50 26
-62 37 l-23 21 0 -22 c0 -28 24 -86 40 -96 11 -7 140 -24 140 -19 0 17 -48
125 -63 142 -22 23 -78 30 -106 13z"/>
<path d="M11842 11497 c-16 -17 -62 -122 -62 -142 0 -4 130 14 140 20 16 10
40 68 40 96 l0 22 -23 -21 c-12 -11 -40 -28 -62 -37 -42 -16 -35 -10 43 38 35
22 42 31 31 38 -28 17 -84 10 -107 -14z"/>
<path d="M3843 11477 l-42 -10 46 -53 c56 -65 88 -80 137 -64 65 21 70 50 17
108 -25 27 -36 32 -73 31 -24 -1 -62 -6 -85 -12z m124 -63 c42 -22 56 -34 38
-30 -28 7 -129 66 -113 66 4 0 38 -16 75 -36z"/>
<path d="M8799 11458 c-53 -59 -48 -89 21 -109 47 -14 72 -2 133 67 l46 51
-50 11 c-86 20 -116 16 -150 -20z m81 -29 c-27 -22 -82 -49 -101 -49 -10 0
109 68 121 69 3 0 -6 -9 -20 -20z"/>
<path d="M8388 11343 c12 -2 30 -2 40 0 9 3 -1 5 -23 4 -22 0 -30 -2 -17 -4z"/>
<path d="M4123 11320 c-37 -15 -54 -53 -51 -109 l3 -51 51 24 c56 26 64 38 64
96 0 47 -19 59 -67 40z m26 -48 c-23 -47 -34 -56 -19 -16 15 37 31 66 36 62 2
-2 -6 -23 -17 -46z"/>
<path d="M4343 11320 c-35 -14 -55 -53 -51 -104 l3 -45 59 24 c33 13 63 30 67
37 10 15 12 82 3 91 -8 7 -34 -24 -57 -68 -9 -16 -16 -25 -16 -20 -1 6 10 29
24 53 21 36 22 42 7 41 -9 0 -27 -4 -39 -9z"/>
<path d="M8376 11323 c-8 -9 -7 -75 2 -89 9 -14 42 -31 93 -49 l39 -14 0 49
c0 59 -28 97 -78 106 l-32 7 25 -44 c13 -24 25 -48 24 -54 0 -5 -7 4 -16 20
-23 44 -49 75 -57 68z"/>
<path d="M8623 11324 c-14 -6 -18 -70 -7 -99 6 -14 92 -65 110 -65 3 0 4 27 2
60 -3 43 -10 66 -24 80 -20 20 -61 32 -81 24z m42 -56 c8 -21 13 -38 10 -38
-2 0 -12 17 -22 38 -27 58 -27 58 -15 47 6 -5 18 -27 27 -47z"/>
<path d="M682 11293 c-81 -29 -112 -78 -112 -182 0 -25 -4 -63 -9 -84 l-9 -37
32 19 c17 10 60 31 96 45 110 45 139 88 125 186 -8 57 -17 63 -35 21 -11 -26
-150 -162 -150 -146 0 3 36 44 80 91 44 46 80 89 80 94 0 14 -48 11 -98 -7z"/>
<path d="M12020 11302 c0 -6 36 -50 80 -96 44 -47 80 -88 80 -91 0 -16 -139
120 -150 146 -17 41 -28 36 -36 -16 -15 -101 15 -144 136 -196 41 -17 84 -38
96 -46 22 -14 22 -14 13 24 -5 21 -9 63 -9 93 -1 83 -27 132 -86 160 -57 26
-124 38 -124 22z"/>
<path d="M555 10270 c3 -5 10 -53 14 -106 9 -111 24 -138 92 -171 47 -23 107
-38 117 -29 8 9 -44 77 -103 134 -30 29 -55 57 -55 62 0 13 157 -142 162 -160
9 -27 20 -2 25 57 6 81 -15 112 -104 152 -37 18 -85 40 -105 51 -41 22 -52 25
-43 10z"/>
<path d="M12210 10265 c-14 -8 -60 -30 -102 -49 -99 -44 -121 -75 -115 -159 5
-59 16 -84 25 -58 7 21 70 88 116 123 35 27 32 22 -20 -32 -68 -73 -100 -117
-90 -127 3 -4 37 3 75 15 101 33 131 74 131 180 0 32 4 72 9 90 11 36 7 38
-29 17z"/>
<path d="M944 9913 c-66 -5 -92 -31 -101 -100 -5 -49 -5 -50 24 -56 32 -6 71
0 90 15 7 6 21 33 32 61 10 29 22 60 26 70 5 11 3 16 -6 15 -8 -1 -37 -3 -65
-5z m-8 -76 c-10 -7 -34 -22 -53 -35 -19 -12 -33 -17 -31 -10 3 7 24 22 48 35
45 24 68 30 36 10z"/>
<path d="M11785 9902 c4 -10 16 -40 26 -69 11 -28 25 -55 32 -61 19 -14 57
-21 86 -16 31 6 38 38 21 90 -16 47 -38 61 -108 67 -56 5 -63 3 -57 -11z m140
-88 c14 -9 25 -20 25 -25 0 -5 -15 2 -34 14 -18 12 -42 28 -52 34 -16 11 -15
11 8 3 16 -5 39 -17 53 -26z"/>
<path d="M590 9813 c0 -1 14 -31 31 -66 19 -41 39 -69 55 -76 29 -13 83 -14
102 -2 17 10 6 19 -65 55 -29 14 -53 28 -53 31 0 7 94 -36 111 -51 24 -22 28
-17 19 23 -14 60 -40 77 -125 83 -41 3 -75 4 -75 3z"/>
<path d="M12133 9810 c-83 -6 -109 -23 -123 -83 -9 -40 -5 -45 19 -23 17 15
111 58 111 51 0 -3 -24 -17 -52 -31 -72 -36 -83 -45 -66 -55 19 -12 73 -11
102 2 16 8 36 35 56 77 17 35 29 65 28 66 -2 1 -36 -1 -75 -4z"/>
<path d="M812 9685 c0 -16 2 -22 5 -12 2 9 2 23 0 30 -3 6 -5 -1 -5 -18z"/>
<path d="M11982 9680 c0 -19 2 -27 5 -17 2 9 2 25 0 35 -3 9 -5 1 -5 -18z"/>
<path d="M785 9498 c-23 -162 -31 -394 -15 -499 17 -119 54 -240 108 -349 l47
-95 0 -205 c-1 -226 -12 -294 -76 -460 -32 -85 -47 -103 -27 -34 6 21 11 89
11 149 0 121 -22 225 -68 316 -23 44 -24 53 -14 94 16 64 7 190 -18 246 -40
89 -151 180 -218 178 -11 0 -1 -6 23 -14 156 -48 248 -230 202 -397 l-11 -38
-57 58 c-36 38 -82 71 -127 93 -66 32 -75 34 -180 34 -101 0 -115 -2 -169 -29
-72 -35 -126 -88 -163 -158 -37 -71 -39 -181 -6 -244 75 -141 251 -182 420
-99 86 43 203 152 243 228 14 26 28 47 31 47 7 0 26 -39 51 -110 32 -88 36
-273 9 -379 -37 -150 -89 -242 -215 -386 -184 -210 -268 -402 -283 -645 l-7
-105 -19 60 c-14 42 -21 99 -24 190 -4 122 -2 143 36 334 39 193 48 294 33
349 -4 13 -7 -19 -8 -70 -1 -73 -10 -127 -42 -254 -52 -208 -66 -306 -59 -413
11 -154 59 -286 154 -418 l52 -73 -52 -73 c-95 -132 -143 -264 -154 -418 -7
-107 7 -205 59 -413 32 -127 41 -181 42 -254 1 -51 4 -83 8 -70 15 56 6 158
-33 351 -38 190 -41 210 -36 332 3 91 10 148 24 190 l19 60 7 -105 c15 -243
99 -435 283 -645 126 -144 178 -236 215 -386 27 -106 23 -291 -9 -379 -25 -71
-44 -110 -51 -110 -3 0 -17 21 -31 47 -40 76 -157 185 -243 228 -169 83 -345
42 -420 -99 -33 -63 -31 -173 6 -244 37 -70 97 -128 166 -161 50 -23 68 -26
166 -26 105 0 114 2 180 34 45 22 91 55 127 93 l57 58 11 -38 c46 -167 -46
-349 -202 -397 -24 -8 -34 -14 -23 -14 67 -2 178 89 218 178 25 56 34 182 18
246 -10 41 -9 50 14 94 46 91 68 195 68 316 0 61 -5 128 -11 149 -20 69 -5 51
27 -34 65 -167 76 -234 76 -460 l0 -205 -47 -95 c-90 -182 -123 -347 -116
-578 5 -134 35 -398 45 -388 3 2 -3 60 -11 128 -46 346 -22 578 80 783 l34 70
-5 -50 c-3 -27 -12 -102 -20 -165 -15 -117 -18 -237 -7 -278 4 -13 7 23 8 80
1 57 9 155 19 218 17 108 19 113 31 85 19 -46 57 -76 167 -130 81 -40 104 -56
111 -78 9 -23 6 -31 -16 -54 -20 -20 -32 -24 -52 -19 -33 8 -52 42 -35 62 15
19 29 18 45 -3 7 -10 14 -13 14 -6 0 13 -27 43 -39 43 -19 0 -43 -29 -44 -54
0 -40 29 -66 75 -66 45 0 88 35 88 72 -1 49 -26 71 -151 132 -111 55 -126 65
-143 101 -19 37 -19 46 -7 160 41 377 14 586 -107 835 -26 52 -49 99 -51 104
-2 5 14 -4 35 -21 22 -16 109 -82 194 -145 291 -216 399 -366 433 -603 3 -16
3 -2 1 31 -4 54 -22 124 -49 188 -5 11 -4 17 1 14 100 -48 112 -51 172 -51 55
0 68 5 100 30 50 40 76 94 67 140 -16 88 -116 125 -169 62 -14 -17 -26 -38
-25 -47 0 -11 4 -8 10 8 17 43 40 60 80 60 99 0 123 -156 33 -215 -17 -11 -54
-20 -93 -22 -91 -7 -156 27 -226 117 -112 144 -174 201 -484 439 -228 175
-349 308 -432 472 -72 145 -117 353 -100 469 7 50 8 52 15 25 25 -103 75 -182
156 -250 45 -38 159 -96 255 -131 73 -25 115 -71 115 -123 0 -85 -56 -138
-132 -128 -45 6 -71 26 -89 68 -10 26 -9 34 8 57 35 48 88 39 96 -16 3 -23 5
-24 11 -9 13 27 -1 62 -29 75 -41 19 -64 14 -96 -17 -72 -73 2 -211 114 -211
53 0 97 21 135 64 27 30 32 45 32 85 0 90 -65 151 -220 206 -113 40 -186 83
-236 139 -69 76 -96 137 -102 227 -5 86 7 118 78 207 l40 52 -40 52 c-65 82
-80 118 -80 195 0 54 6 80 29 128 58 122 142 189 321 255 107 40 145 63 181
113 42 58 41 123 -3 173 -38 43 -82 64 -135 64 -112 0 -186 -138 -114 -211 32
-31 55 -36 96 -17 28 13 42 48 29 75 -6 15 -8 14 -11 -9 -8 -55 -61 -64 -96
-16 -17 23 -18 31 -8 57 18 42 44 62 89 68 76 10 132 -43 132 -128 0 -52 -42
-98 -115 -123 -120 -43 -232 -106 -288 -161 -56 -56 -117 -160 -117 -199 0
-12 -4 -27 -9 -34 -13 -22 -21 95 -11 173 24 191 85 340 200 493 80 107 185
203 409 374 194 148 324 270 403 375 57 76 120 115 195 121 71 6 138 -19 164
-62 46 -75 6 -176 -70 -176 -40 0 -63 17 -80 60 -6 16 -10 19 -10 8 -1 -9 11
-30 25 -47 53 -63 153 -26 169 62 9 46 -17 100 -66 140 -32 25 -45 29 -104 29
-56 0 -77 -5 -126 -30 l-59 -30 16 30 c25 49 43 119 48 183 2 33 2 47 -1 30
-12 -86 -38 -166 -75 -239 -59 -114 -194 -247 -410 -404 -92 -67 -169 -122
-171 -122 -3 0 15 39 40 88 124 247 153 469 112 847 -12 114 -12 123 7 160 17
36 32 46 143 101 125 62 150 84 151 132 0 37 -43 72 -88 72 -46 0 -74 -26 -74
-66 0 -25 24 -54 43 -54 12 0 39 30 39 43 0 7 -7 4 -14 -5 -16 -22 -30 -23
-45 -4 -17 20 2 54 35 62 20 5 32 1 52 -19 22 -23 25 -31 16 -54 -7 -22 -30
-38 -111 -78 -110 -54 -148 -84 -167 -130 -12 -28 -14 -23 -31 85 -10 63 -18
161 -19 218 -1 57 -4 93 -8 80 -11 -41 -8 -161 7 -278 8 -63 17 -137 20 -165
l5 -50 -35 71 c-102 210 -125 436 -79 782 8 68 14 126 11 128 -2 2 -12 -51
-22 -118z m-273 -971 c62 -28 146 -100 179 -153 l20 -34 -28 -52 c-42 -78
-155 -187 -236 -227 -161 -78 -324 -45 -392 81 -83 152 14 341 208 404 66 22
181 13 249 -19z m-116 -3766 c108 -39 241 -156 295 -263 20 -39 20 -39 0 -72
-33 -53 -117 -125 -179 -154 -49 -23 -70 -27 -147 -27 -76 0 -99 4 -146 26
-167 78 -239 249 -165 386 29 53 81 97 132 113 52 15 152 11 210 -9z"/>
<path d="M362 8433 c13 -16 35 -44 48 -63 15 -23 4 -15 -33 25 l-56 60 -1 -31
c0 -45 19 -93 43 -106 17 -9 117 -36 138 -38 14 0 -42 146 -62 163 -13 10 -38
17 -62 17 l-41 0 26 -27z"/>
<path d="M435 4506 c-27 -7 -60 -18 -72 -24 -25 -14 -47 -74 -41 -112 3 -22 9
-25 46 -28 65 -5 86 14 115 103 15 46 20 75 13 74 -6 0 -33 -6 -61 -13z m-26
-78 c-31 -45 -61 -78 -71 -78 -5 0 12 25 38 55 54 62 66 70 33 23z"/>
<path d="M11992 9590 c0 -19 2 -27 5 -17 2 9 2 25 0 35 -3 9 -5 1 -5 -18z"/>
<path d="M12005 9510 c2 -25 10 -107 17 -183 20 -228 -10 -431 -93 -617 -18
-39 -34 -69 -36 -66 -2 2 5 77 16 166 22 166 25 263 10 315 -6 22 -7 16 -3
-21 6 -54 -9 -208 -30 -314 -12 -59 -14 -63 -23 -40 -18 41 -59 72 -166 125
-81 40 -104 56 -112 78 -8 23 -5 31 17 54 30 30 70 27 88 -8 21 -38 -28 -69
-49 -31 -10 16 -10 16 -11 0 0 -15 27 -38 44 -38 14 0 36 35 36 59 0 58 -80
82 -134 40 -30 -24 -35 -71 -10 -104 8 -11 70 -47 137 -80 168 -83 167 -79
142 -312 -35 -333 -5 -542 113 -783 25 -52 48 -99 50 -104 3 -5 -13 5 -34 21
-22 17 -102 77 -179 133 -300 221 -407 363 -446 595 l-8 50 4 -60 c2 -34 15
-94 29 -134 13 -39 21 -71 18 -69 -73 39 -111 50 -170 50 -56 0 -69 -4 -101
-29 -49 -40 -75 -94 -66 -140 16 -88 116 -125 169 -62 14 17 26 38 25 47 0 11
-4 8 -10 -8 -17 -43 -40 -60 -79 -60 -78 0 -118 99 -71 176 26 43 93 68 165
62 78 -6 137 -46 209 -140 82 -107 173 -190 392 -358 205 -156 354 -296 428
-401 124 -175 187 -387 179 -602 -2 -58 -17 -54 -26 5 -9 59 -54 135 -118 197
-53 52 -169 117 -283 157 -73 25 -115 71 -115 123 0 76 49 131 115 131 59 0
124 -64 108 -107 -11 -31 -35 -53 -58 -53 -27 0 -42 16 -47 50 -4 21 -6 22
-12 7 -13 -27 1 -62 29 -75 41 -19 65 -14 96 19 35 38 39 88 9 137 -56 92
-180 96 -258 8 -44 -50 -45 -115 -3 -173 36 -50 74 -73 178 -112 125 -46 181
-78 239 -135 74 -75 106 -143 112 -237 5 -86 -7 -118 -78 -207 l-40 -52 40
-52 c71 -89 83 -121 78 -207 -5 -85 -32 -147 -92 -218 -51 -58 -113 -97 -235
-144 -131 -50 -165 -71 -202 -122 -42 -58 -41 -123 3 -173 78 -88 202 -84 258
8 30 49 26 99 -9 137 -31 33 -55 38 -96 19 -28 -13 -42 -48 -29 -75 6 -15 8
-14 12 7 11 69 81 67 105 -3 10 -26 -18 -74 -53 -92 -84 -43 -170 14 -170 114
0 56 34 93 117 126 38 14 104 44 149 66 128 62 235 185 250 287 9 59 24 63 26
5 10 -271 -83 -509 -282 -727 -58 -63 -181 -165 -385 -321 -160 -123 -256
-213 -332 -313 -36 -47 -78 -88 -108 -107 -43 -26 -57 -30 -124 -30 -113 0
-161 42 -161 138 0 56 38 97 91 97 38 0 61 -18 78 -60 6 -16 10 -19 10 -8 1 9
-11 30 -25 47 -53 63 -153 26 -169 -62 -9 -46 17 -100 67 -140 32 -25 45 -30
100 -30 57 0 96 11 170 51 3 2 -5 -30 -18 -69 -14 -40 -27 -100 -29 -134 -2
-33 -2 -49 1 -35 25 141 46 200 102 290 41 65 143 173 227 240 78 62 335 250
335 245 0 -2 -18 -36 -39 -77 -52 -96 -106 -259 -126 -378 -20 -124 -19 -248
2 -446 16 -156 16 -161 -3 -200 -17 -35 -32 -45 -141 -99 -67 -33 -129 -69
-137 -80 -42 -55 0 -125 74 -125 43 0 70 24 70 63 0 22 -22 57 -36 57 -17 0
-44 -23 -44 -38 1 -16 1 -16 11 1 21 37 70 6 49 -32 -18 -35 -58 -38 -88 -8
-22 23 -25 31 -17 54 8 22 31 38 112 78 107 53 148 84 166 125 9 23 11 19 23
-40 21 -106 36 -260 30 -314 -4 -37 -3 -43 3 -21 15 52 12 149 -10 315 -11 89
-18 164 -16 166 8 8 66 -132 92 -220 39 -137 52 -296 37 -463 -7 -76 -15 -158
-17 -183 -2 -25 2 -12 10 30 25 125 30 398 11 510 -21 119 -67 256 -113 340
l-37 65 -4 170 c-2 100 1 201 8 245 12 84 72 282 96 320 11 17 13 19 9 5 -14
-45 -26 -184 -20 -240 9 -82 40 -196 70 -256 23 -44 24 -53 14 -94 -16 -64 -7
-190 18 -246 40 -89 151 -180 218 -178 11 0 1 6 -23 14 -139 43 -220 173 -209
335 3 43 8 83 11 89 4 6 31 -14 64 -47 36 -38 82 -71 127 -93 66 -32 75 -34
180 -34 98 0 116 3 166 26 69 33 129 91 166 161 37 71 39 181 6 244 -75 141
-251 182 -420 99 -86 -43 -203 -152 -243 -228 -14 -26 -28 -47 -31 -47 -10 0
-48 93 -65 162 -24 94 -15 288 19 383 45 131 99 218 212 345 91 103 152 197
196 304 44 106 79 264 80 363 l1 68 20 -60 c15 -44 22 -95 25 -190 5 -122 2
-142 -36 -332 -39 -193 -48 -295 -33 -351 4 -13 7 19 8 70 1 73 10 127 42 254
52 208 66 306 59 413 -11 154 -59 286 -154 418 l-52 73 52 73 c95 132 143 264
154 418 7 107 -7 205 -59 413 -32 127 -41 181 -42 254 -1 51 -4 83 -8 70 -15
-55 -6 -156 33 -349 38 -191 40 -212 36 -334 -3 -95 -10 -146 -25 -190 l-20
-60 -1 68 c-1 98 -36 257 -80 362 -46 112 -105 203 -207 320 -125 143 -177
235 -214 380 -25 96 -27 255 -5 339 17 65 54 156 64 156 3 0 17 -21 31 -47 40
-76 157 -185 243 -228 169 -83 345 -42 420 99 33 63 31 173 -6 244 -37 70 -91
123 -163 158 -54 27 -68 29 -169 29 -105 0 -114 -2 -180 -34 -45 -22 -91 -55
-127 -93 -37 -37 -60 -54 -64 -46 -4 7 -10 47 -12 90 -9 161 72 290 210 333
24 8 34 14 23 14 -67 2 -178 -89 -218 -178 -25 -56 -34 -182 -18 -246 10 -41
9 -50 -14 -94 -30 -60 -61 -174 -70 -256 -6 -56 6 -195 20 -240 4 -14 2 -12
-9 5 -24 39 -84 236 -96 320 -7 42 -10 148 -8 240 l3 165 47 95 c54 110 91
230 109 350 14 101 6 369 -16 480 -8 42 -12 55 -10 30z m576 -982 c120 -55
191 -155 192 -271 2 -201 -209 -299 -419 -196 -82 41 -196 149 -237 227 l-28
52 20 34 c27 43 108 119 152 142 100 52 223 57 320 12z m28 -3758 c98 -28 165
-121 164 -227 -1 -116 -71 -215 -192 -272 -47 -22 -70 -26 -146 -26 -77 0 -98
4 -147 27 -62 29 -146 101 -179 154 -20 33 -20 33 0 72 54 105 186 224 293
262 58 21 154 26 207 10z"/>
<path d="M12361 8443 c-20 -17 -76 -163 -62 -163 21 2 121 29 138 38 24 13 43
61 43 106 l-1 31 -55 -60 c-33 -35 -49 -47 -38 -30 10 17 31 45 48 63 l30 32
-41 0 c-24 0 -49 -7 -62 -17z"/>
<path d="M12316 4448 c28 -85 50 -108 107 -108 l41 0 -30 33 c-17 17 -38 46
-48 62 -11 17 5 5 38 -30 l55 -60 1 31 c0 49 -20 93 -49 108 -20 10 -116 36
-135 36 -2 0 7 -33 20 -72z"/>
<path d="M1322 8948 c-20 -85 -16 -115 20 -149 58 -53 87 -48 108 17 16 48 1
81 -64 137 l-53 45 -11 -50z m89 -136 c18 -54 6 -43 -29 27 -30 59 -31 63 -8
36 14 -16 30 -45 37 -63z"/>
<path d="M11403 8942 c-68 -63 -73 -78 -48 -137 17 -43 38 -52 70 -31 66 43
76 78 52 178 l-12 48 -62 -58z m7 -117 c-16 -31 -30 -49 -30 -39 0 19 49 108
56 101 2 -2 -9 -30 -26 -62z"/>
<path d="M1512 8714 c-28 -19 -45 -59 -37 -85 5 -15 16 -19 49 -19 53 0 70 13
95 73 l20 47 -52 0 c-32 0 -62 -6 -75 -16z m58 -38 c0 -7 -84 -46 -88 -41 -3
3 15 14 39 25 48 22 49 22 49 16z"/>
<path d="M11170 8705 c31 -82 46 -95 110 -95 46 0 59 24 38 67 -17 36 -52 53
-110 53 -47 0 -47 0 -38 -25z m145 -67 c11 -12 11 -12 -47 15 -21 10 -38 20
-38 22 0 8 73 -24 85 -37z"/>
<path d="M1270 8645 c0 -18 53 -106 69 -115 23 -12 71 -13 89 -2 8 6 -2 17
-35 35 -27 15 -43 27 -38 27 6 0 27 -9 48 -20 36 -20 37 -20 37 -1 0 41 -40
69 -107 75 -35 3 -63 3 -63 1z"/>
<path d="M11448 8643 c-36 -3 -52 -10 -68 -30 -11 -14 -20 -34 -20 -44 0 -18
1 -18 37 1 21 11 42 20 48 20 5 0 -11 -12 -38 -27 -50 -28 -48 -43 6 -43 44 0
65 17 92 72 30 62 29 58 8 56 -10 -1 -39 -3 -65 -5z"/>
<path d="M1525 8500 c-29 -11 -44 -32 -51 -69 l-7 -31 44 25 c64 36 72 31 11
-8 -57 -36 -58 -47 -3 -47 53 0 65 13 96 101 l14 39 -42 -1 c-23 0 -51 -4 -62
-9z"/>
<path d="M11184 8472 c19 -52 36 -85 50 -94 17 -11 86 -9 86 2 0 6 -21 24 -47
40 -57 36 -45 40 16 5 l44 -25 -7 32 c-10 50 -37 71 -100 76 l-56 4 14 -40z"/>
<path d="M1252 8381 c31 -71 54 -91 104 -91 24 0 45 4 48 9 3 4 -20 22 -52 39
-66 37 -59 42 11 8 l47 -23 0 21 c0 12 -7 31 -15 43 -15 22 -34 27 -121 36
l-42 5 20 -47z"/>
<path d="M11491 8420 c-70 -8 -101 -31 -101 -75 l0 -22 48 23 c69 34 76 29 10
-8 -32 -17 -55 -35 -52 -39 3 -5 24 -9 48 -9 31 0 48 6 63 23 22 23 67 118 55
116 -4 -1 -36 -5 -71 -9z"/>
<path d="M150 7894 c-15 -87 -9 -106 45 -142 39 -28 67 -23 83 14 28 60 17 86
-69 162 l-45 41 -14 -75z m75 -77 c14 -24 25 -52 25 -62 0 -13 -59 88 -60 103
0 11 13 -5 35 -41z"/>
<path d="M12573 7911 c-67 -62 -77 -90 -51 -145 16 -37 44 -42 83 -14 55 37
60 56 44 142 l-14 75 -62 -58z m7 -115 c-17 -32 -30 -51 -30 -41 0 19 49 109
55 103 2 -2 -9 -30 -25 -62z"/>
<path d="M404 7790 c-66 -30 -84 -57 -84 -126 0 -52 17 -49 49 8 45 80 53 88
30 33 -11 -27 -27 -57 -35 -66 -22 -24 -17 -28 24 -18 47 10 82 50 82 92 0 18
3 49 6 70 4 20 3 37 -2 36 -5 0 -37 -13 -70 -29z"/>
<path d="M12324 7783 c3 -21 6 -52 6 -70 0 -42 35 -82 83 -92 40 -10 45 -6 23
18 -8 9 -24 39 -35 66 -23 55 -15 47 30 -33 16 -29 34 -50 39 -47 13 8 13 64
0 101 -12 33 -29 46 -102 75 l-51 20 7 -38z"/>
<path d="M1000 7085 l-23 -25 44 -2 44 -1 -45 -6 -45 -6 25 -17 c35 -25 69
-22 113 11 l37 28 -49 22 c-63 27 -72 26 -101 -4z"/>
<path d="M11697 7088 l-47 -21 37 -28 c44 -33 78 -36 113 -11 l25 17 -45 6
-45 6 44 1 44 2 -23 25 c-28 30 -41 31 -103 3z"/>
<path d="M795 7007 c-167 -56 -238 -202 -192 -397 24 -98 35 -112 107 -138 54
-18 82 -22 160 -19 85 2 102 6 150 33 62 34 113 100 131 167 17 64 7 192 -21
256 -21 48 -29 56 -79 78 -68 31 -194 40 -256 20z m194 -108 c43 -15 64 -60
65 -134 0 -145 -135 -268 -275 -252 -85 10 -102 24 -116 92 -24 122 27 224
142 283 45 24 133 29 184 11z"/>
<path d="M11825 7014 c-11 -3 -44 -15 -74 -26 -49 -20 -56 -26 -79 -77 -30
-65 -41 -190 -23 -258 18 -67 69 -133 131 -167 48 -27 65 -31 150 -33 78 -3
106 1 160 19 55 19 68 28 82 58 25 52 41 155 35 219 -14 164 -119 261 -287
267 -41 2 -84 1 -95 -2z m173 -128 c112 -57 163 -160 139 -281 -14 -68 -31
-82 -116 -92 -137 -16 -273 106 -275 246 -1 111 37 150 147 151 42 0 71 -7
105 -24z"/>
<path d="M1175 6960 c-24 -34 -26 -45 -19 -72 18 -60 68 -63 88 -5 7 19 5 37
-9 67 -10 23 -22 43 -25 45 -4 3 -20 -13 -35 -35z m34 -89 c1 -35 -5 -22 -12
24 -5 28 -4 34 3 20 5 -11 9 -31 9 -44z"/>
<path d="M11571 6962 c-26 -51 -27 -84 -3 -105 28 -25 50 -21 68 14 18 36 13
63 -20 103 l-24 29 -21 -41z m30 -78 c-5 -21 -9 -30 -10 -19 -1 24 10 67 15
62 3 -2 0 -22 -5 -43z"/>
<path d="M1305 6772 c-55 -34 -92 -88 -135 -199 -23 -59 -50 -123 -60 -140
-19 -32 -19 -34 0 -65 10 -18 38 -82 61 -142 61 -160 126 -223 216 -213 77 8
133 81 133 169 0 58 -28 101 -84 127 -39 19 -51 21 -80 11 -46 -15 -70 -44
-70 -85 0 -59 62 -99 93 -61 10 12 9 13 -7 9 -57 -14 -83 49 -36 86 37 29 61
26 100 -13 26 -26 34 -42 34 -70 0 -73 -51 -126 -120 -126 -68 0 -106 43 -156
176 -14 38 -37 90 -51 117 l-26 47 26 49 c15 27 39 80 53 117 14 38 35 85 46
105 65 117 228 77 228 -57 0 -28 -8 -44 -34 -70 -19 -19 -43 -34 -54 -34 -27
0 -72 37 -72 60 0 28 30 52 57 47 19 -3 21 -2 12 9 -31 38 -93 -3 -93 -61 0
-41 24 -70 70 -85 29 -10 41 -8 80 11 64 31 86 69 81 142 -7 119 -121 194
-212 139z"/>
<path d="M11375 6780 c-28 -11 -72 -60 -84 -93 -17 -44 -13 -109 8 -143 11
-17 40 -41 65 -53 40 -20 50 -21 82 -11 65 22 90 95 47 143 -19 20 -56 22 -72
3 -9 -11 -7 -12 12 -9 27 5 57 -19 57 -47 0 -23 -45 -60 -72 -60 -11 0 -35 15
-54 34 -26 26 -34 42 -34 70 0 76 51 126 126 126 53 0 103 -54 139 -150 15
-41 41 -101 58 -133 l30 -57 -27 -49 c-14 -27 -38 -80 -52 -117 -14 -38 -35
-85 -46 -105 -65 -117 -228 -77 -228 57 0 28 8 44 34 70 19 19 43 34 54 34 27
0 72 -37 72 -60 0 -28 -30 -52 -57 -47 -19 3 -21 2 -12 -9 16 -19 53 -17 72 4
43 47 18 120 -47 142 -32 10 -42 9 -82 -11 -56 -26 -84 -69 -84 -127 0 -88 56
-161 133 -169 90 -10 155 53 216 213 23 60 51 124 61 142 19 31 19 33 0 65
-10 17 -38 81 -61 141 -43 112 -85 173 -140 202 -31 15 -83 18 -114 4z"/>
<path d="M730 6334 c-30 -8 -64 -21 -76 -28 -28 -19 -54 -104 -61 -197 -10
-137 42 -240 151 -297 46 -24 62 -27 151 -27 87 0 107 3 156 26 49 23 58 32
79 80 35 79 39 205 11 281 -56 147 -222 213 -411 162z m192 -81 c84 -46 131
-125 131 -218 0 -108 -38 -145 -148 -145 -115 0 -218 84 -244 199 -11 50 3
154 23 170 45 37 164 34 238 -6z"/>
<path d="M11813 6329 c-68 -26 -127 -86 -153 -157 -29 -78 -25 -203 10 -281
21 -48 30 -57 79 -80 49 -23 69 -26 156 -26 89 0 106 3 151 27 57 30 106 81
131 136 39 88 12 322 -41 357 -69 45 -245 58 -333 24z m286 -62 c34 -16 55
-109 40 -177 -26 -116 -128 -200 -244 -200 -111 0 -148 37 -149 146 0 49 6 71
30 115 32 56 98 110 158 129 37 11 129 4 165 -13z"/>
<path d="M1164 5929 c-18 -36 -13 -63 20 -103 l24 -29 21 41 c25 49 26 70 5
100 -22 31 -51 28 -70 -9z m36 -39 l-11 -25 6 25 c2 14 5 34 6 45 2 19 2 19 6
0 2 -12 -1 -32 -7 -45z"/>
<path d="M11567 5942 c-23 -25 -21 -54 4 -104 l21 -41 24 29 c33 40 38 67 20
103 -19 35 -45 40 -69 13z m36 -37 c5 -28 4 -34 -3 -20 -8 19 -14 73 -6 64 2
-2 6 -22 9 -44z"/>
<path d="M1001 5774 c-18 -13 -20 -18 -10 -25 12 -7 12 -9 0 -9 -10 0 -7 -8 9
-25 29 -31 47 -31 104 -3 l45 21 -37 28 c-42 32 -77 36 -111 13z m62 -31 c-7
-2 -21 -2 -30 0 -10 3 -4 5 12 5 17 0 24 -2 18 -5z"/>
<path d="M11688 5761 l-37 -28 45 -21 c57 -28 75 -28 104 3 16 17 19 25 9 25
-12 0 -12 2 0 9 10 7 8 12 -10 25 -34 23 -69 19 -111 -13z m85 -18 c-7 -2 -21
-2 -30 0 -10 3 -4 5 12 5 17 0 24 -2 18 -5z"/>
<path d="M350 5182 c0 -3 6 -13 14 -21 8 -9 24 -38 35 -66 23 -55 15 -47 -30
33 -32 57 -49 60 -49 8 0 -70 18 -96 88 -127 36 -16 66 -28 68 -26 2 2 1 34
-3 71 -7 81 -29 113 -85 125 -21 5 -38 6 -38 3z"/>
<path d="M12410 5179 c-53 -11 -76 -45 -83 -125 -4 -37 -5 -69 -3 -71 2 -2 32
10 68 26 70 31 88 57 88 127 0 52 -17 49 -49 -8 -45 -80 -53 -88 -30 -33 11
28 28 58 36 68 21 22 16 25 -27 16z"/>
<path d="M193 5048 c-53 -37 -58 -57 -42 -142 l14 -75 63 58 c66 62 77 94 51
144 -23 43 -41 46 -86 15z m32 -64 c-36 -61 -40 -51 -7 16 15 30 28 49 30 42
2 -7 -8 -33 -23 -58z"/>
<path d="M12544 5062 c-19 -12 -34 -49 -34 -83 0 -26 11 -42 63 -90 l62 -58
14 75 c16 86 10 105 -43 142 -34 24 -45 26 -62 14z m43 -74 c13 -27 21 -48 19
-48 -11 0 -56 88 -55 106 0 14 2 15 6 4 3 -8 16 -36 30 -62z"/>
<path d="M1293 4488 c-11 -13 -30 -44 -41 -69 l-20 -47 42 5 c87 9 106 14 121
36 8 12 15 31 15 43 l0 21 -47 -23 c-70 -34 -77 -29 -11 8 32 17 55 35 52 39
-3 5 -24 9 -48 9 -31 0 -48 -6 -63 -22z"/>
<path d="M11396 4501 c-3 -4 20 -22 52 -39 66 -37 59 -42 -10 -8 l-48 23 0
-21 c0 -12 7 -31 15 -43 15 -22 34 -27 121 -36 l42 -5 -20 47 c-31 71 -54 91
-104 91 -24 0 -45 -4 -48 -9z"/>
<path d="M1476 4423 c-3 -4 17 -22 46 -40 61 -39 53 -44 -11 -8 l-44 25 7 -32
c9 -50 47 -78 106 -78 l49 0 -14 39 c-18 51 -35 84 -49 93 -14 10 -80 10 -90
1z"/>
<path d="M11234 4422 c-14 -9 -31 -42 -49 -93 l-14 -39 49 0 c59 0 97 28 106
78 l7 32 -44 -25 c-64 -36 -72 -31 -11 8 29 18 49 36 46 40 -10 9 -76 9 -90
-1z"/>
<path d="M1337 4269 c-14 -8 -67 -97 -67 -114 0 -2 28 -2 63 1 67 6 107 34
107 75 0 19 -1 19 -37 -1 -21 -11 -42 -20 -48 -20 -5 0 11 12 38 27 33 18 43
29 35 35 -18 11 -69 9 -91 -3z"/>
<path d="M11372 4272 c-8 -6 2 -17 35 -35 27 -15 43 -27 38 -27 -6 0 -27 9
-48 20 -36 20 -37 20 -37 1 0 -41 40 -69 108 -75 34 -3 62 -4 62 -3 0 17 -54
109 -69 117 -23 12 -71 13 -89 2z"/>
<path d="M1475 4171 c-8 -26 9 -66 37 -85 13 -10 43 -16 75 -16 l52 0 -20 48
c-25 59 -42 72 -95 72 -33 0 -44 -4 -49 -19z m58 -24 c20 -10 37 -20 37 -22 0
-8 -73 24 -85 37 -11 12 -11 12 48 -15z"/>
<path d="M11221 4183 c-7 -3 -24 -28 -37 -57 l-24 -51 51 -3 c58 -4 94 15 110
55 17 44 3 63 -44 62 -23 0 -48 -3 -56 -6z m94 -22 c-6 -6 -28 -17 -50 -27
-46 -18 -42 -11 7 16 38 20 57 25 43 11z"/>
<path d="M1360 4015 c-18 -14 -37 -31 -42 -37 -11 -19 -9 -76 5 -130 l12 -47
57 53 c67 63 77 91 51 143 -22 47 -39 51 -83 18z m51 -27 c-7 -18 -23 -46 -37
-63 -23 -27 -22 -23 8 36 35 70 47 81 29 27z"/>
<path d="M11365 4016 c-9 -13 -19 -40 -22 -61 -6 -34 -3 -39 58 -95 l64 -60
12 48 c22 90 17 116 -27 156 -47 42 -64 45 -85 12z m71 -103 c-7 -7 -56 82
-56 101 0 10 14 -8 30 -39 17 -32 28 -60 26 -62z"/>
<path d="M11992 3210 c0 -19 2 -27 5 -17 2 9 2 25 0 35 -3 9 -5 1 -5 -18z"/>
<path d="M673 3128 c-18 -9 -90 -136 -81 -143 2 -1 36 1 75 4 83 7 109 25 123
84 9 40 5 45 -19 23 -17 -15 -111 -58 -111 -51 0 3 24 17 53 31 71 36 82 45
65 55 -18 12 -78 10 -105 -3z"/>
<path d="M812 3115 c0 -16 2 -22 5 -12 2 9 2 23 0 30 -3 6 -5 -1 -5 -18z"/>
<path d="M11982 3115 c0 -16 2 -22 5 -12 2 9 2 23 0 30 -3 6 -5 -1 -5 -18z"/>
<path d="M12022 3131 c-17 -10 -6 -19 66 -55 28 -14 52 -28 52 -31 0 -7 -94
36 -111 51 -24 22 -28 17 -19 -23 14 -59 40 -77 123 -84 39 -3 73 -5 75 -4 1
2 -11 32 -28 67 -20 42 -40 69 -56 77 -29 13 -83 14 -102 2z"/>
<path d="M863 3043 c-33 -6 -29 -16 18 -43 22 -14 50 -33 62 -43 18 -14 13
-14 -23 4 -25 12 -54 29 -64 38 -18 15 -19 15 -12 -24 11 -60 39 -82 114 -88
56 -5 63 -3 57 11 -4 10 -16 40 -26 69 -11 28 -25 55 -32 61 -15 12 -65 20
-94 15z"/>
<path d="M11880 3043 c-36 -7 -47 -19 -69 -76 -10 -29 -22 -59 -26 -69 -6 -14
1 -16 57 -11 78 7 104 28 114 90 8 57 -14 77 -76 66z m65 -43 c-3 -5 -30 -22
-58 -35 -52 -26 -43 -15 23 29 36 23 47 26 35 6z"/>
<path d="M691 2820 c-92 -33 -121 -76 -121 -177 0 -32 -4 -73 -9 -91 -11 -36
-9 -38 27 -17 15 8 62 31 105 50 100 46 120 75 114 158 -5 59 -16 84 -25 57
-5 -17 -162 -173 -162 -162 0 5 19 26 41 47 49 47 119 133 119 146 0 14 -30
10 -89 -11z"/>
<path d="M12020 2832 c0 -13 68 -98 110 -137 17 -16 37 -39 42 -50 7 -13 0 -9
-19 10 -16 17 -50 50 -76 73 -25 24 -49 52 -52 63 -9 28 -22 23 -29 -12 -20
-103 6 -147 112 -195 42 -19 89 -41 104 -49 31 -18 42 -19 32 -4 -3 6 -10 54
-14 106 -8 109 -22 137 -91 170 -54 26 -119 40 -119 25z"/>
<path d="M553 1803 c4 -7 12 -58 17 -113 10 -117 21 -139 85 -170 53 -26 125
-38 125 -22 0 6 -36 50 -80 96 -44 47 -80 88 -80 91 0 16 139 -120 150 -146
18 -42 27 -36 35 21 14 100 -14 139 -135 191 -41 17 -85 39 -99 48 -14 9 -22
11 -18 4z"/>
<path d="M12224 1796 c-11 -8 -51 -27 -89 -42 -122 -49 -156 -97 -141 -199 8
-52 19 -57 36 -16 11 26 150 162 150 146 0 -3 -36 -44 -80 -91 -44 -46 -80
-90 -80 -96 0 -16 72 -4 124 22 64 30 77 56 87 171 4 55 11 104 14 109 8 14 3
12 -21 -4z"/>
<path d="M4673 1739 c-45 -13 -99 -80 -106 -132 -7 -51 7 -120 34 -166 11 -18
18 -35 17 -37 -2 -2 -34 8 -70 21 -37 13 -98 27 -135 29 -37 3 -57 3 -43 0 14
-2 52 -9 85 -15 33 -6 103 -31 154 -56 83 -40 108 -58 196 -147 63 -63 148
-164 223 -268 67 -92 122 -169 122 -171 0 -3 -39 15 -87 40 -248 124 -470 153
-848 112 -114 -12 -123 -12 -160 7 -36 17 -46 32 -96 133 -78 158 -127 194
-184 136 -44 -43 -28 -128 25 -135 33 -5 70 17 70 40 0 13 -30 40 -43 40 -7 0
-4 -7 6 -14 21 -16 22 -30 3 -45 -20 -17 -54 2 -62 35 -5 20 -1 32 19 52 23
22 31 25 54 16 22 -7 38 -30 78 -110 62 -124 74 -140 119 -163 l36 -19 -113
-18 c-61 -9 -158 -18 -215 -18 -57 -1 -93 -4 -80 -8 46 -12 179 -8 328 12 84
12 154 19 156 17 8 -8 -134 -67 -220 -92 -137 -39 -296 -52 -463 -37 -76 7
-158 15 -183 17 -25 2 -12 -2 30 -10 111 -22 379 -30 480 -16 120 18 240 55
350 109 l95 47 171 3 c130 3 194 0 260 -13 98 -18 255 -67 294 -91 18 -11 19
-14 5 -9 -11 3 -57 11 -103 17 -133 16 -281 -10 -400 -71 -37 -19 -47 -20 -87
-10 -64 16 -190 7 -246 -18 -89 -40 -180 -151 -178 -218 0 -11 6 -1 14 23 43
138 172 219 333 210 43 -2 83 -8 90 -12 8 -4 -9 -27 -46 -64 -38 -36 -71 -82
-93 -127 -32 -66 -34 -75 -34 -180 0 -98 3 -116 26 -166 33 -69 91 -129 161
-166 71 -37 181 -39 244 -6 141 75 182 251 99 420 -43 86 -152 203 -228 243
-26 14 -47 28 -47 31 0 10 91 47 157 64 61 16 210 22 278 10 59 -10 163 -44
220 -73 75 -37 130 -77 230 -165 159 -140 309 -217 499 -257 50 -11 125 -20
166 -21 l75 -1 -60 -20 c-44 -15 -95 -22 -190 -25 -122 -4 -143 -2 -334 36
-193 39 -294 48 -349 33 -13 -4 19 -7 70 -8 74 -1 127 -10 256 -42 90 -23 202
-47 250 -53 210 -28 403 21 579 148 l73 52 73 -52 c176 -127 369 -176 579
-148 48 6 160 30 250 53 129 32 182 41 256 42 51 1 83 4 70 8 -56 15 -158 6
-351 -33 -190 -38 -210 -41 -332 -36 -95 3 -146 10 -190 25 l-60 20 75 1 c227
4 466 103 655 271 158 141 285 211 440 241 75 15 232 12 298 -6 66 -17 157
-54 157 -64 0 -3 -21 -17 -47 -31 -76 -40 -185 -157 -228 -244 -84 -169 -43
-344 99 -419 63 -33 173 -31 244 6 68 36 124 94 159 165 25 52 28 67 28 167 0
105 -2 114 -34 179 -20 42 -56 91 -92 127 -38 38 -54 61 -47 65 7 4 47 10 90
12 161 9 290 -72 333 -210 8 -24 14 -34 14 -23 2 67 -89 178 -178 218 -56 25
-182 34 -246 18 -40 -10 -50 -9 -87 10 -119 61 -267 87 -400 71 -46 -6 -92
-14 -103 -17 -14 -5 -13 -2 5 9 39 24 196 73 295 91 69 13 128 16 264 13 l176
-5 65 -36 c85 -46 222 -92 340 -113 112 -19 385 -14 510 11 42 8 55 12 30 10
-25 -2 -107 -10 -183 -17 -167 -15 -326 -2 -463 37 -86 25 -228 84 -220 92 2
2 72 -5 156 -17 149 -20 282 -24 328 -12 13 4 -23 7 -80 8 -57 0 -154 9 -215
18 l-113 18 36 19 c45 23 57 39 119 163 40 80 56 103 78 110 23 9 31 6 54 -16
20 -20 24 -32 19 -52 -8 -33 -42 -52 -62 -35 -19 15 -18 29 3 45 10 7 13 14 6
14 -13 0 -43 -27 -43 -40 0 -23 37 -45 70 -40 53 7 69 92 25 135 -57 58 -108
22 -179 -130 -35 -74 -63 -119 -80 -130 -39 -26 -97 -29 -241 -11 -308 38
-535 5 -775 -112 -52 -26 -99 -49 -104 -51 -5 -2 4 14 21 35 17 22 82 109 145
194 151 203 256 304 381 365 51 24 119 48 152 54 33 6 71 13 85 15 14 3 -6 3
-43 0 -37 -2 -98 -16 -135 -29 -36 -13 -67 -23 -69 -22 -1 2 9 25 22 52 20 38
25 64 25 120 0 67 -2 74 -36 113 -42 50 -91 67 -146 51 -79 -21 -106 -114 -47
-163 17 -14 35 -26 41 -26 6 0 -4 10 -23 23 -28 19 -35 30 -37 64 -3 35 1 44
28 67 23 19 43 26 72 26 89 0 145 -75 135 -181 -7 -79 -43 -138 -120 -197
-136 -103 -197 -171 -436 -481 -175 -227 -308 -349 -470 -430 -153 -77 -353
-120 -476 -103 l-60 8 55 12 c158 35 271 157 355 382 37 98 77 140 134 140
107 0 165 -97 109 -180 -32 -46 -72 -58 -107 -33 -46 35 -36 93 16 93 14 0 21
4 18 10 -22 35 -95 -16 -95 -67 0 -39 51 -83 97 -83 106 0 174 116 127 216
-45 95 -141 123 -222 64 -47 -34 -80 -87 -116 -187 -40 -113 -74 -172 -132
-230 -75 -76 -158 -113 -250 -113 -63 0 -76 4 -130 36 -32 19 -71 47 -86 62
l-28 26 -27 -26 c-16 -15 -55 -43 -87 -62 -54 -32 -67 -36 -132 -36 -62 0 -81
5 -141 35 -116 58 -180 140 -239 308 -54 152 -116 217 -205 217 -40 0 -55 -5
-85 -32 -43 -38 -64 -82 -64 -135 0 -112 138 -186 211 -114 34 35 37 68 8 105
-21 26 -62 35 -74 16 -3 -6 4 -10 17 -10 52 0 65 -55 21 -90 -73 -58 -166 58
-119 148 20 40 63 62 117 62 52 0 98 -42 123 -115 39 -109 105 -231 154 -282
59 -62 139 -109 212 -125 l55 -12 -60 -8 c-123 -17 -323 26 -476 103 -176 88
-302 208 -531 508 -148 194 -270 324 -375 403 -108 82 -148 190 -108 294 32
83 130 112 195 58 27 -23 31 -32 28 -67 -2 -34 -9 -45 -37 -64 -19 -13 -29
-23 -23 -23 6 0 24 12 41 26 48 40 42 111 -11 146 -33 21 -77 28 -115 17z
m-174 -1048 c107 -55 224 -187 263 -298 24 -68 22 -188 -4 -238 -62 -118 -207
-162 -332 -101 -66 32 -119 89 -155 165 -22 47 -26 70 -26 146 0 76 4 99 26
146 30 63 84 128 143 171 21 15 41 28 43 28 2 0 21 -9 42 -19z m3887 -9 c59
-43 113 -108 143 -171 22 -47 26 -70 26 -146 0 -76 -4 -99 -26 -146 -78 -166
-249 -239 -387 -164 -172 93 -163 341 19 526 55 55 157 129 180 129 3 0 24
-13 45 -28z"/>
<path d="M4445 483 c-87 -28 -107 -50 -103 -112 3 -40 6 -46 28 -49 42 -6 99
16 114 46 13 25 40 133 34 137 -2 0 -34 -9 -73 -22z m-35 -102 c-52 -46 -71
-57 -55 -31 7 12 96 79 105 80 3 0 -20 -22 -50 -49z"/>
<path d="M8280 503 c0 -2 7 -35 16 -74 19 -82 41 -103 113 -103 l46 -1 3 46
c4 62 -16 83 -105 112 -40 13 -73 22 -73 20z m160 -147 c29 -35 2 -21 -50 26
l-55 50 46 -30 c25 -17 51 -38 59 -46z"/>
<path d="M4070 1586 c0 -58 18 -92 57 -107 45 -17 63 -3 63 46 0 51 -19 74
-80 98 l-40 15 0 -52z m82 -68 c11 -24 15 -38 9 -33 -5 6 -17 28 -27 50 -21
52 -7 38 18 -17z"/>
<path d="M8674 1615 c-56 -25 -64 -37 -64 -95 0 -46 24 -59 67 -38 36 17 55
58 51 112 l-3 44 -51 -23z m-9 -82 c-9 -21 -21 -42 -27 -48 -12 -11 -12 -11
15 48 10 20 20 37 22 37 3 0 -2 -17 -10 -37z"/>
<path d="M4290 1580 c0 -59 28 -97 78 -106 l32 -7 -25 44 c-13 24 -25 49 -24
54 0 6 7 -3 16 -20 23 -44 49 -75 57 -68 8 9 7 75 -2 89 -9 14 -42 31 -93 49
l-39 14 0 -49z"/>
<path d="M8446 1605 c-33 -13 -63 -30 -67 -37 -10 -15 -12 -82 -3 -91 8 -7 34
24 57 68 9 17 16 26 16 20 1 -5 -11 -30 -24 -54 l-25 -44 32 7 c50 9 78 47 78
107 0 27 -1 49 -2 49 -2 0 -30 -11 -62 -25z"/>
<path d="M6110 1509 c-55 -22 -100 -85 -100 -139 0 -80 68 -142 216 -199 60
-23 124 -51 142 -61 31 -19 33 -19 65 0 17 10 81 38 141 61 112 43 173 85 202
140 46 90 -27 197 -140 207 -70 6 -116 -20 -146 -83 -18 -38 -20 -50 -10 -79
15 -46 44 -70 85 -70 59 0 99 62 61 93 -12 10 -13 9 -9 -7 14 -57 -49 -83 -86
-36 -29 37 -26 61 13 100 26 26 42 34 70 34 73 0 126 -51 126 -120 0 -68 -43
-106 -176 -156 -38 -14 -90 -37 -116 -51 l-48 -26 -57 30 c-32 17 -92 42 -133
57 -106 39 -150 80 -150 144 0 71 52 122 126 122 28 0 44 -8 70 -34 39 -39 42
-63 13 -100 -37 -47 -100 -21 -86 36 4 16 3 17 -9 7 -38 -31 2 -93 61 -93 41
0 70 24 85 70 10 29 8 41 -10 79 -12 25 -36 53 -54 65 -36 22 -103 26 -146 9z"/>
<path d="M3914 1447 c-12 -7 -42 -35 -67 -63 l-46 -51 50 -11 c101 -24 130
-15 174 52 22 33 14 53 -30 71 -41 18 -53 18 -81 2z m106 -34 c-8 -3 -40 -19
-70 -36 -31 -17 -49 -24 -42 -15 16 20 91 58 112 57 13 0 13 -1 0 -6z"/>
<path d="M8802 1445 c-41 -18 -49 -38 -27 -71 44 -67 73 -76 174 -52 l50 11
-46 51 c-69 78 -92 87 -151 61z m59 -62 c56 -37 48 -40 -13 -5 -29 16 -60 32
-68 36 -8 3 -2 4 13 1 16 -3 46 -17 68 -32z"/>
<path d="M953 1439 c-35 -4 -68 -11 -74 -15 -15 -9 -39 -68 -39 -95 l0 -22 23
21 c12 11 40 28 62 37 41 16 35 10 -42 -38 -24 -15 -41 -32 -38 -37 3 -6 25
-10 49 -10 53 0 75 22 105 104 12 32 20 59 19 60 -2 1 -31 -1 -65 -5z"/>
<path d="M11780 1445 c0 -1 9 -28 20 -60 28 -81 52 -105 106 -105 24 0 46 4
49 10 3 5 -14 22 -38 37 -77 48 -83 54 -42 38 22 -9 50 -26 62 -37 l23 -21 0
22 c0 27 -24 86 -39 95 -9 6 -141 25 -141 21z"/>
<path d="M4187 1418 c-20 -18 -26 -36 -31 -85 -3 -35 -3 -63 -1 -63 18 0 106
53 115 69 12 23 13 71 2 89 -6 8 -17 -2 -35 -35 -15 -27 -27 -43 -27 -38 0 6
9 27 20 48 20 36 20 37 1 37 -11 0 -31 -10 -44 -22z"/>
<path d="M8526 1425 c-9 -25 -7 -64 4 -86 9 -16 97 -69 115 -69 2 0 2 28 -1
63 -6 67 -34 107 -75 107 -19 0 -19 -1 1 -37 29 -55 24 -66 -6 -13 -32 56 -30
54 -38 35z"/>
<path d="M4413 1395 c-22 -15 -27 -34 -36 -121 l-5 -42 47 20 c71 31 91 54 91
104 0 24 -4 45 -9 48 -4 3 -22 -20 -39 -52 -37 -66 -42 -59 -8 11 l23 47 -21
0 c-12 0 -31 -7 -43 -15z"/>
<path d="M8295 1401 c-3 -2 -5 -23 -5 -46 0 -49 21 -72 94 -104 40 -17 47 -18
42 -5 -3 9 -6 38 -6 65 0 65 -32 101 -85 97 -20 -1 -38 -4 -40 -7z m48 -28
c26 -51 28 -79 3 -33 -14 25 -25 48 -26 53 0 15 10 6 23 -20z"/>
<path d="M615 1284 c38 -86 48 -94 117 -94 32 0 58 4 58 9 0 5 -29 24 -64 42
-36 19 -63 35 -62 37 3 2 89 -35 128 -56 9 -4 -6 48 -21 76 -13 25 -25 29
-114 38 l-68 6 26 -58z"/>
<path d="M12096 1331 c-53 -8 -70 -24 -85 -79 -15 -52 -6 -62 54 -62 66 0 86
16 120 93 l25 57 -33 -1 c-17 -1 -54 -5 -81 -8z m-16 -86 c-71 -39 -74 -40
-64 -24 7 12 101 58 119 58 6 0 -19 -15 -55 -34z"/>
<path d="M5836 1229 l-39 -21 29 -24 c40 -33 72 -40 103 -23 34 19 38 53 9 73
-30 21 -54 20 -102 -5z m89 -29 c-11 -5 -29 -8 -40 -8 -16 0 -15 2 5 8 34 11
60 11 35 0z"/>
<path d="M6862 1234 c-29 -20 -25 -54 9 -73 31 -17 63 -10 103 23 l29 24 -41
21 c-49 25 -70 26 -100 5z m48 -34 c20 -6 21 -8 5 -8 -11 0 -29 3 -40 8 -25
11 1 11 35 0z"/>
<path d="M812 1205 c0 -16 2 -22 5 -12 2 9 2 23 0 30 -3 6 -5 -1 -5 -18z"/>
<path d="M11982 1205 c0 -16 2 -22 5 -12 2 9 2 23 0 30 -3 6 -5 -1 -5 -18z"/>
<path d="M5905 1135 c-33 -14 -61 -25 -63 -25 -2 0 -15 -26 -30 -57 -24 -51
-27 -70 -27 -158 1 -88 4 -106 27 -150 33 -63 69 -98 133 -127 97 -44 322 -22
360 36 28 43 47 147 43 232 -4 67 -9 90 -35 135 -33 58 -99 111 -161 129 -69
19 -181 12 -247 -15z m249 -113 c98 -53 149 -164 127 -274 -7 -31 -17 -61 -24
-66 -23 -19 -121 -31 -167 -21 -80 18 -153 80 -185 156 -19 44 -19 133 -1 177
29 69 149 82 250 28z"/>
<path d="M6644 1150 c-60 -19 -126 -73 -158 -130 -27 -48 -31 -65 -33 -150 -3
-78 1 -106 19 -160 19 -55 28 -68 58 -82 93 -44 237 -48 326 -9 62 28 99 63
132 126 24 44 27 61 26 150 0 84 -3 109 -24 154 -21 48 -30 57 -79 80 -45 21
-73 26 -146 28 -49 1 -104 -2 -121 -7z m217 -116 c54 -27 67 -150 25 -232 -57
-111 -160 -163 -278 -140 -32 6 -62 16 -68 23 -23 27 -35 123 -22 171 25 92
105 172 195 195 40 10 113 1 148 -17z"/>
<path d="M802 1120 c0 -19 2 -27 5 -17 2 9 2 25 0 35 -3 9 -5 1 -5 -18z"/>
<path d="M5712 1104 c-28 -57 -28 -75 3 -104 l25 -23 2 49 1 49 6 -50 6 -50
18 25 c24 35 21 69 -12 112 l-28 37 -21 -45z"/>
<path d="M7038 1111 c-32 -45 -35 -76 -10 -111 l17 -25 6 45 6 45 1 -44 2 -44
25 23 c31 29 31 42 2 102 l-22 47 -27 -38z"/>
<path d="M11996 1095 c2 -27 11 -110 19 -184 8 -74 13 -137 11 -139 -2 -2 -70
4 -151 13 -81 9 -148 15 -151 12 -5 -5 133 -25 239 -33 l77 -7 0 31 c0 38 -29
263 -41 317 -8 38 -8 37 -3 -10z"/>
<path d="M782 992 c-7 -48 -15 -120 -19 -161 l-6 -74 89 7 c95 8 252 33 219
35 -11 0 -74 -6 -140 -14 -66 -8 -128 -15 -138 -15 -20 0 -20 -10 5 208 14
118 6 130 -10 14z"/>
<path d="M1378 997 c-79 -31 -98 -51 -98 -103 0 -24 4 -46 10 -49 5 -3 22 14
37 38 48 77 54 83 38 42 -9 -22 -26 -50 -37 -62 l-21 -23 22 0 c28 0 86 24 96
40 10 15 23 140 16 139 -4 0 -31 -10 -63 -22z"/>
<path d="M2887 958 c6 -75 28 -103 88 -114 39 -7 39 -6 24 12 -9 10 -26 39
-38 64 -24 51 -4 31 39 -39 13 -23 27 -41 31 -41 10 0 19 54 12 81 -9 36 -20
47 -76 68 -29 10 -59 22 -69 26 -14 6 -16 -1 -11 -57z"/>
<path d="M9847 995 c-73 -30 -83 -38 -91 -76 -6 -33 1 -79 13 -79 4 0 18 18
31 40 42 68 52 80 40 46 -6 -16 -20 -42 -32 -59 l-21 -30 39 7 c59 11 81 39
87 114 3 34 2 62 -1 61 -4 0 -33 -11 -65 -24z"/>
<path d="M11361 956 c3 -35 10 -69 14 -76 10 -16 68 -40 96 -40 l22 0 -20 23
c-21 23 -53 80 -53 94 0 4 19 -21 41 -56 43 -69 59 -70 59 -4 0 44 -33 76
-103 102 -33 11 -60 21 -61 21 -1 0 1 -29 5 -64z"/>
<path d="M1203 813 c9 -2 23 -2 30 0 6 3 -1 5 -18 5 -16 0 -22 -2 -12 -5z"/>
<path d="M3103 813 c9 -2 25 -2 35 0 9 3 1 5 -18 5 -19 0 -27 -2 -17 -5z"/>
<path d="M9663 813 c9 -2 25 -2 35 0 9 3 1 5 -18 5 -19 0 -27 -2 -17 -5z"/>
<path d="M11573 813 c9 -2 23 -2 30 0 6 3 -1 5 -18 5 -16 0 -22 -2 -12 -5z"/>
<path d="M1103 803 c9 -2 25 -2 35 0 9 3 1 5 -18 5 -19 0 -27 -2 -17 -5z"/>
<path d="M1538 803 c-36 -6 -35 -18 1 -33 26 -11 162 -150 146 -150 -3 0 -44
36 -91 80 -46 44 -90 80 -96 80 -17 0 -4 -71 24 -126 30 -62 71 -84 153 -84
33 0 77 -4 98 -9 l37 -9 -18 32 c-11 17 -31 61 -47 98 -37 89 -70 120 -132
123 -26 2 -60 1 -75 -2z"/>
<path d="M2653 791 c-21 -13 -41 -42 -62 -88 -18 -37 -40 -85 -51 -105 -22
-41 -25 -52 -10 -43 5 3 53 10 106 14 111 9 138 24 171 92 23 47 38 107 29
117 -9 8 -77 -44 -134 -103 -29 -30 -57 -55 -62 -55 -13 0 142 157 160 162 27
9 2 20 -57 25 -46 3 -64 0 -90 -16z"/>
<path d="M3193 803 c9 -2 25 -2 35 0 9 3 1 5 -18 5 -19 0 -27 -2 -17 -5z"/>
<path d="M9573 803 c9 -2 25 -2 35 0 9 3 1 5 -18 5 -19 0 -27 -2 -17 -5z"/>
<path d="M10013 803 c-24 -5 -32 -23 -11 -23 7 0 47 -36 89 -80 42 -44 73 -80
67 -80 -5 0 -32 24 -60 53 -59 60 -116 107 -130 107 -15 0 0 -67 25 -119 33
-68 60 -83 171 -92 53 -4 101 -11 107 -15 7 -4 10 -3 7 2 -2 5 -14 32 -27 59
-62 136 -75 158 -105 176 -29 18 -79 22 -133 12z"/>
<path d="M11150 803 c-34 -13 -71 -61 -101 -132 -17 -41 -38 -85 -46 -97 -14
-22 -14 -22 24 -13 21 5 65 9 98 9 81 0 123 23 153 85 28 54 41 125 24 125 -6
0 -50 -36 -96 -80 -47 -44 -88 -80 -91 -80 -16 0 120 139 146 150 16 7 29 16
29 20 0 15 -107 25 -140 13z"/>
<path d="M11663 803 c9 -2 25 -2 35 0 9 3 1 5 -18 5 -19 0 -27 -2 -17 -5z"/>
<path d="M1220 795 c0 -1 11 -22 24 -46 13 -24 27 -55 30 -69 4 -14 -10 5 -30
43 -20 37 -41 67 -45 67 -5 0 -9 -24 -9 -54 0 -67 16 -87 94 -121 l59 -26 -7
73 c-9 89 -23 112 -75 126 -23 5 -41 9 -41 7z"/>
<path d="M3071 789 c-56 -12 -75 -40 -82 -122 -3 -39 -5 -73 -4 -75 6 -8 118
54 135 75 20 26 27 87 11 111 -10 17 -19 6 -55 -65 -14 -29 -28 -53 -31 -53
-8 0 36 94 52 113 21 22 16 25 -26 16z"/>
<path d="M9690 792 c0 -3 6 -13 14 -21 15 -17 58 -111 51 -111 -3 0 -17 24
-31 53 -36 71 -45 82 -55 65 -16 -24 -9 -85 11 -111 17 -21 129 -83 135 -75 1
2 -1 36 -4 75 -7 83 -25 109 -84 123 -21 4 -37 5 -37 2z"/>
<path d="M11541 789 c-18 -4 -40 -14 -48 -22 -17 -17 -32 -81 -33 -139 l0 -38
58 25 c76 34 92 54 92 121 0 30 -4 54 -10 54 -5 0 -26 -30 -45 -67 -20 -38
-33 -57 -29 -43 3 14 17 45 30 69 13 24 23 45 22 46 -2 1 -18 -2 -37 -6z"/>
<path d="M4980 477 c0 -3 13 -34 29 -69 31 -70 56 -88 121 -88 58 0 57 16 -2
49 -80 45 -88 53 -33 30 28 -11 57 -27 66 -35 24 -22 28 -17 18 24 -11 50 -49
82 -98 82 -21 0 -53 3 -70 6 -17 4 -31 4 -31 1z"/>
<path d="M7728 471 c-67 -7 -95 -29 -108 -84 -9 -40 -5 -45 19 -23 9 8 39 24
66 35 55 23 47 15 -33 -30 -59 -33 -60 -49 -2 -49 65 0 90 18 121 88 16 35 29
66 29 68 0 4 -8 4 -92 -5z"/>
<path d="M4889 228 l-58 -63 70 -13 c87 -18 109 -12 143 37 33 48 28 75 -16
90 -60 21 -77 15 -139 -51z m115 -8 c-32 -16 -60 -27 -62 -26 -6 7 83 56 102
56 10 0 -8 -13 -40 -30z"/>
<path d="M7763 278 c-35 -17 -38 -45 -9 -88 32 -49 57 -56 145 -38 l70 13 -58
63 c-50 53 -63 62 -92 61 -19 0 -44 -5 -56 -11z m54 -54 c64 -37 47 -40 -22
-4 -31 16 -49 30 -39 30 9 0 37 -12 61 -26z"/>
</g>
</svg>
